<?xml version="1.0" encoding="UTF-8"?>
<svg width="1920px" height="800px" viewBox="0 0 1920 800" version="1.1" xmlns="http://www.w3.org/2000/svg" xmlns:xlink="http://www.w3.org/1999/xlink">
    <title> </title>
    <defs>
        <linearGradient x1="31.48408%" y1="8.09831393%" x2="56.6372094%" y2="36.9605106%" id="linearGradient-1">
            <stop stop-color="#94BEF1" offset="0%"></stop>
            <stop stop-color="#4284D3" offset="100%"></stop>
        </linearGradient>
        <linearGradient x1="32.3781688%" y1="12.4344071%" x2="56.6372094%" y2="38.4468993%" id="linearGradient-2">
            <stop stop-color="#9BC3F4" offset="0%"></stop>
            <stop stop-color="#4284D3" offset="100%"></stop>
        </linearGradient>
    </defs>
    <g id="登录页&amp;懂你对接" stroke="none" stroke-width="1" fill="none" fill-rule="evenodd">
        <g id="1" transform="translate(0.000000, -70.000000)">
            <rect fill="#F0F6FF" x="0" y="0" width="1920" height="870"></rect>
            <g id="编组" transform="translate(-573.000000, -235.000000)">
                <path d="M751.607236,240.138502 L1199.84914,249.178395 C1305.86625,251.316489 1390.07684,338.993608 1387.93874,445.010723 C1387.9245,445.716839 1387.90637,446.422871 1387.88433,447.128787 L1364.66118,1191.21938 C1361.35331,1297.20645 1272.75226,1380.44438 1166.7652,1377.13651 C1166.29242,1377.12176 1165.81969,1377.10526 1165.34703,1377.08701 L489.862629,1351.00659 C386.782894,1347.02669 305.270218,1262.30608 305.270218,1159.14954 L305.270218,603.555733 L305.270218,603.555733 C198.33579,674.100429 208.643793,658.024147 336.194226,555.326889 C455.040794,459.637549 573.495215,361.695382 691.557487,261.500388 C708.298183,247.293192 729.65503,239.695782 751.607236,240.138502 Z" id="矩形" fill="url(#linearGradient-1)" opacity="0.208055" transform="translate(813.030454, 812.000000) rotate(40.000000) translate(-813.030454, -812.000000) "></path>
                <path d="M778.343069,270.820995 L1203.53145,260.41313 C1309.53837,257.818267 1397.5775,341.650301 1400.17237,447.657219 C1400.2107,449.223064 1400.22986,450.78932 1400.22986,452.355634 L1400.22986,1113.90311 C1400.22986,1219.94178 1314.26854,1305.90311 1208.22986,1305.90311 L531.742333,1305.90311 C429.764916,1305.90311 345.578626,1226.18164 340.027053,1124.35545 L313.51802,638.130476 L313.51802,638.130476 C235.85516,680.087294 257.81684,652.118118 379.403061,554.222946 C493.655672,462.232431 609.758149,373.469721 727.710492,287.934816 C742.465734,277.234832 760.121985,271.267016 778.343069,270.820995 Z" id="矩形" fill="url(#linearGradient-2)" transform="translate(834.170500, 780.750706) rotate(40.000000) translate(-834.170500, -780.750706) "></path>
            </g>
            <path d="M1741.39263,693.565563 L2028.47263,406.376563 C2037.46646,397.360777 2049.6779,392.293911 2062.41263,392.293911 C2075.14736,392.293911 2087.3588,397.360777 2096.35263,406.376563 L2383.44263,693.565563 C2392.45195,702.568314 2397.51388,714.782606 2397.51388,727.519063 C2397.51388,740.25552 2392.45195,752.469813 2383.44263,761.472563 L2096.35263,1048.66256 C2087.35854,1057.67786 2075.1472,1062.74438 2062.41263,1062.74438 C2049.67806,1062.74438 2037.46672,1057.67786 2028.47263,1048.66256 L1741.39263,761.472563 C1732.37963,752.471768 1727.31515,740.256743 1727.31515,727.519063 C1727.31515,714.781384 1732.37963,702.566358 1741.39263,693.565563 Z" id="矩形-3" fill="#CCDEF6" opacity="0.42" transform="translate(2062.414517, 727.519147) rotate(-9.000000) translate(-2062.414517, -727.519147) "></path>
            <rect id="矩形" fill="#F9FCFF" opacity="0.904969" x="0" y="826" width="1920" height="44"></rect>
        </g>
    </g>
</svg>